<mxfile host="www.draw.io" modified="2020-03-28T05:12:57.994Z" agent="Mozilla/5.0 (Macintosh; Intel Mac OS X 10_13_6) AppleWebKit/537.36 (KHTML, like Gecko) Chrome/80.0.3987.132 Safari/537.36" etag="Td_Wsk-pi3rv5LjSjLQq" version="12.9.0" type="github">
  <diagram id="MjlQWqHFHtWTsT1JXo1a" name="第 1 页">
    <mxGraphModel dx="1198" dy="702" grid="0" gridSize="10" guides="1" tooltips="1" connect="1" arrows="1" fold="1" page="0" pageScale="1" pageWidth="827" pageHeight="1169" math="0" shadow="0">
      <root>
        <mxCell id="0" />
        <mxCell id="1" parent="0" />
        <mxCell id="0rpYeIa2x_W2y_OSrQGR-18" value="" style="edgeStyle=orthogonalEdgeStyle;rounded=0;orthogonalLoop=1;jettySize=auto;html=1;" edge="1" parent="1" source="0rpYeIa2x_W2y_OSrQGR-1" target="0rpYeIa2x_W2y_OSrQGR-17">
          <mxGeometry relative="1" as="geometry" />
        </mxCell>
        <mxCell id="0rpYeIa2x_W2y_OSrQGR-1" value="" style="rounded=0;whiteSpace=wrap;html=1;" vertex="1" parent="1">
          <mxGeometry x="95" y="80" width="530" height="189" as="geometry" />
        </mxCell>
        <mxCell id="0rpYeIa2x_W2y_OSrQGR-69" value="" style="edgeStyle=orthogonalEdgeStyle;rounded=0;orthogonalLoop=1;jettySize=auto;html=1;" edge="1" parent="1" source="0rpYeIa2x_W2y_OSrQGR-17" target="0rpYeIa2x_W2y_OSrQGR-31">
          <mxGeometry relative="1" as="geometry" />
        </mxCell>
        <mxCell id="0rpYeIa2x_W2y_OSrQGR-17" value="" style="rounded=0;whiteSpace=wrap;html=1;" vertex="1" parent="1">
          <mxGeometry x="676" y="74.5" width="530" height="200" as="geometry" />
        </mxCell>
        <mxCell id="0rpYeIa2x_W2y_OSrQGR-70" value="" style="edgeStyle=orthogonalEdgeStyle;rounded=0;orthogonalLoop=1;jettySize=auto;html=1;" edge="1" parent="1" source="0rpYeIa2x_W2y_OSrQGR-31" target="0rpYeIa2x_W2y_OSrQGR-44">
          <mxGeometry relative="1" as="geometry" />
        </mxCell>
        <mxCell id="0rpYeIa2x_W2y_OSrQGR-31" value="" style="rounded=0;whiteSpace=wrap;html=1;" vertex="1" parent="1">
          <mxGeometry x="676" y="318" width="530" height="200" as="geometry" />
        </mxCell>
        <mxCell id="0rpYeIa2x_W2y_OSrQGR-71" value="" style="edgeStyle=orthogonalEdgeStyle;rounded=0;orthogonalLoop=1;jettySize=auto;html=1;" edge="1" parent="1" source="0rpYeIa2x_W2y_OSrQGR-44" target="0rpYeIa2x_W2y_OSrQGR-56">
          <mxGeometry relative="1" as="geometry" />
        </mxCell>
        <mxCell id="0rpYeIa2x_W2y_OSrQGR-44" value="" style="rounded=0;whiteSpace=wrap;html=1;" vertex="1" parent="1">
          <mxGeometry x="95" y="317" width="542" height="201" as="geometry" />
        </mxCell>
        <mxCell id="0rpYeIa2x_W2y_OSrQGR-56" value="" style="rounded=0;whiteSpace=wrap;html=1;" vertex="1" parent="1">
          <mxGeometry x="97" y="594" width="538" height="153" as="geometry" />
        </mxCell>
        <mxCell id="0rpYeIa2x_W2y_OSrQGR-3" value="node1(k8s:1.8.14)" style="rounded=1;whiteSpace=wrap;html=1;" vertex="1" parent="1">
          <mxGeometry x="150" y="120" width="120" height="30" as="geometry" />
        </mxCell>
        <mxCell id="0rpYeIa2x_W2y_OSrQGR-4" value="" style="rounded=0;whiteSpace=wrap;html=1;" vertex="1" parent="1">
          <mxGeometry x="150" y="150" width="120" height="102" as="geometry" />
        </mxCell>
        <mxCell id="0rpYeIa2x_W2y_OSrQGR-5" value="node2(k8s:1.8.14)" style="rounded=1;whiteSpace=wrap;html=1;" vertex="1" parent="1">
          <mxGeometry x="300" y="120" width="120" height="30" as="geometry" />
        </mxCell>
        <mxCell id="0rpYeIa2x_W2y_OSrQGR-6" value="" style="rounded=0;whiteSpace=wrap;html=1;" vertex="1" parent="1">
          <mxGeometry x="300" y="150" width="120" height="101" as="geometry" />
        </mxCell>
        <mxCell id="0rpYeIa2x_W2y_OSrQGR-7" value="node3(k8s:1.8.14)" style="rounded=1;whiteSpace=wrap;html=1;" vertex="1" parent="1">
          <mxGeometry x="450" y="120" width="120" height="30" as="geometry" />
        </mxCell>
        <mxCell id="0rpYeIa2x_W2y_OSrQGR-8" value="" style="rounded=0;whiteSpace=wrap;html=1;" vertex="1" parent="1">
          <mxGeometry x="450" y="150" width="120" height="97" as="geometry" />
        </mxCell>
        <mxCell id="0rpYeIa2x_W2y_OSrQGR-10" value="初始状态" style="text;html=1;strokeColor=none;fillColor=none;align=center;verticalAlign=middle;whiteSpace=wrap;rounded=0;" vertex="1" parent="1">
          <mxGeometry x="315" y="88" width="90" height="20" as="geometry" />
        </mxCell>
        <mxCell id="0rpYeIa2x_W2y_OSrQGR-12" value="pod1" style="rounded=1;whiteSpace=wrap;html=1;" vertex="1" parent="1">
          <mxGeometry x="165" y="175" width="90" height="40" as="geometry" />
        </mxCell>
        <mxCell id="0rpYeIa2x_W2y_OSrQGR-13" value="pod2" style="rounded=1;whiteSpace=wrap;html=1;" vertex="1" parent="1">
          <mxGeometry x="315" y="172" width="90" height="40" as="geometry" />
        </mxCell>
        <mxCell id="0rpYeIa2x_W2y_OSrQGR-16" value="pod3" style="rounded=1;whiteSpace=wrap;html=1;" vertex="1" parent="1">
          <mxGeometry x="465" y="170" width="90" height="40" as="geometry" />
        </mxCell>
        <mxCell id="0rpYeIa2x_W2y_OSrQGR-20" value="驱逐node1的pod" style="text;html=1;strokeColor=none;fillColor=none;align=center;verticalAlign=middle;whiteSpace=wrap;rounded=0;" vertex="1" parent="1">
          <mxGeometry x="871" y="80" width="120" height="20" as="geometry" />
        </mxCell>
        <mxCell id="0rpYeIa2x_W2y_OSrQGR-22" value="node1(k8s:1.8.14)" style="rounded=1;whiteSpace=wrap;html=1;" vertex="1" parent="1">
          <mxGeometry x="706" y="121" width="120" height="30" as="geometry" />
        </mxCell>
        <mxCell id="0rpYeIa2x_W2y_OSrQGR-23" value="" style="rounded=0;whiteSpace=wrap;html=1;" vertex="1" parent="1">
          <mxGeometry x="706" y="151" width="120" height="107" as="geometry" />
        </mxCell>
        <mxCell id="0rpYeIa2x_W2y_OSrQGR-24" value="node2(k8s:1.8.14)" style="rounded=1;whiteSpace=wrap;html=1;" vertex="1" parent="1">
          <mxGeometry x="856" y="121" width="120" height="30" as="geometry" />
        </mxCell>
        <mxCell id="0rpYeIa2x_W2y_OSrQGR-25" value="" style="rounded=0;whiteSpace=wrap;html=1;" vertex="1" parent="1">
          <mxGeometry x="856" y="151" width="120" height="103" as="geometry" />
        </mxCell>
        <mxCell id="0rpYeIa2x_W2y_OSrQGR-26" value="node3(k8s:1.8.14)" style="rounded=1;whiteSpace=wrap;html=1;" vertex="1" parent="1">
          <mxGeometry x="1006" y="121" width="120" height="30" as="geometry" />
        </mxCell>
        <mxCell id="0rpYeIa2x_W2y_OSrQGR-27" value="" style="rounded=0;whiteSpace=wrap;html=1;" vertex="1" parent="1">
          <mxGeometry x="1006" y="151" width="120" height="100" as="geometry" />
        </mxCell>
        <mxCell id="0rpYeIa2x_W2y_OSrQGR-28" value="pod1" style="rounded=1;whiteSpace=wrap;html=1;" vertex="1" parent="1">
          <mxGeometry x="868" y="205" width="90" height="40" as="geometry" />
        </mxCell>
        <mxCell id="0rpYeIa2x_W2y_OSrQGR-29" value="pod2" style="rounded=1;whiteSpace=wrap;html=1;" vertex="1" parent="1">
          <mxGeometry x="868" y="156" width="90" height="40" as="geometry" />
        </mxCell>
        <mxCell id="0rpYeIa2x_W2y_OSrQGR-30" value="pod3" style="rounded=1;whiteSpace=wrap;html=1;" vertex="1" parent="1">
          <mxGeometry x="1021" y="170" width="90" height="40" as="geometry" />
        </mxCell>
        <mxCell id="0rpYeIa2x_W2y_OSrQGR-34" value="标记node1不可用，并且升级" style="text;html=1;strokeColor=none;fillColor=none;align=center;verticalAlign=middle;whiteSpace=wrap;rounded=0;" vertex="1" parent="1">
          <mxGeometry x="862.5" y="328.5" width="171" height="20" as="geometry" />
        </mxCell>
        <mxCell id="0rpYeIa2x_W2y_OSrQGR-35" value="node1(taint + k8s:1.16.8)" style="rounded=1;whiteSpace=wrap;html=1;" vertex="1" parent="1">
          <mxGeometry x="718" y="366.5" width="120" height="30" as="geometry" />
        </mxCell>
        <mxCell id="0rpYeIa2x_W2y_OSrQGR-36" value="" style="rounded=0;whiteSpace=wrap;html=1;" vertex="1" parent="1">
          <mxGeometry x="718" y="396.5" width="120" height="111" as="geometry" />
        </mxCell>
        <mxCell id="0rpYeIa2x_W2y_OSrQGR-37" value="node2(k8s:1.8.14)" style="rounded=1;whiteSpace=wrap;html=1;" vertex="1" parent="1">
          <mxGeometry x="868" y="366.5" width="120" height="30" as="geometry" />
        </mxCell>
        <mxCell id="0rpYeIa2x_W2y_OSrQGR-38" value="" style="rounded=0;whiteSpace=wrap;html=1;" vertex="1" parent="1">
          <mxGeometry x="868" y="396.5" width="120" height="108" as="geometry" />
        </mxCell>
        <mxCell id="0rpYeIa2x_W2y_OSrQGR-39" value="node3(k8s:1.8.14)" style="rounded=1;whiteSpace=wrap;html=1;" vertex="1" parent="1">
          <mxGeometry x="1018" y="366.5" width="120" height="30" as="geometry" />
        </mxCell>
        <mxCell id="0rpYeIa2x_W2y_OSrQGR-40" value="" style="rounded=0;whiteSpace=wrap;html=1;" vertex="1" parent="1">
          <mxGeometry x="1018" y="396.5" width="120" height="107" as="geometry" />
        </mxCell>
        <mxCell id="0rpYeIa2x_W2y_OSrQGR-41" value="pod1" style="rounded=1;whiteSpace=wrap;html=1;" vertex="1" parent="1">
          <mxGeometry x="883" y="456.5" width="90" height="40" as="geometry" />
        </mxCell>
        <mxCell id="0rpYeIa2x_W2y_OSrQGR-42" value="pod2" style="rounded=1;whiteSpace=wrap;html=1;" vertex="1" parent="1">
          <mxGeometry x="883" y="407.5" width="90" height="40" as="geometry" />
        </mxCell>
        <mxCell id="0rpYeIa2x_W2y_OSrQGR-43" value="pod3" style="rounded=1;whiteSpace=wrap;html=1;" vertex="1" parent="1">
          <mxGeometry x="1033" y="413.5" width="90" height="40" as="geometry" />
        </mxCell>
        <mxCell id="0rpYeIa2x_W2y_OSrQGR-46" value="升级之后取消污点，可以被调度" style="text;html=1;strokeColor=none;fillColor=none;align=center;verticalAlign=middle;whiteSpace=wrap;rounded=0;" vertex="1" parent="1">
          <mxGeometry x="288.5" y="337" width="197" height="20" as="geometry" />
        </mxCell>
        <mxCell id="0rpYeIa2x_W2y_OSrQGR-47" value="node1(k8s:1.16.8)" style="rounded=1;whiteSpace=wrap;html=1;" vertex="1" parent="1">
          <mxGeometry x="167" y="375" width="120" height="30" as="geometry" />
        </mxCell>
        <mxCell id="0rpYeIa2x_W2y_OSrQGR-48" value="" style="rounded=0;whiteSpace=wrap;html=1;" vertex="1" parent="1">
          <mxGeometry x="167" y="405" width="120" height="76" as="geometry" />
        </mxCell>
        <mxCell id="0rpYeIa2x_W2y_OSrQGR-49" value="node2(k8s:1.8.14)" style="rounded=1;whiteSpace=wrap;html=1;" vertex="1" parent="1">
          <mxGeometry x="317" y="375" width="120" height="30" as="geometry" />
        </mxCell>
        <mxCell id="0rpYeIa2x_W2y_OSrQGR-50" value="" style="rounded=0;whiteSpace=wrap;html=1;" vertex="1" parent="1">
          <mxGeometry x="317" y="405" width="120" height="74" as="geometry" />
        </mxCell>
        <mxCell id="0rpYeIa2x_W2y_OSrQGR-51" value="node3(k8s:1.8.14)" style="rounded=1;whiteSpace=wrap;html=1;" vertex="1" parent="1">
          <mxGeometry x="467" y="375" width="120" height="30" as="geometry" />
        </mxCell>
        <mxCell id="0rpYeIa2x_W2y_OSrQGR-52" value="" style="rounded=0;whiteSpace=wrap;html=1;" vertex="1" parent="1">
          <mxGeometry x="467" y="405" width="120" height="70" as="geometry" />
        </mxCell>
        <mxCell id="0rpYeIa2x_W2y_OSrQGR-53" value="pod1" style="rounded=1;whiteSpace=wrap;html=1;" vertex="1" parent="1">
          <mxGeometry x="182" y="425" width="90" height="40" as="geometry" />
        </mxCell>
        <mxCell id="0rpYeIa2x_W2y_OSrQGR-54" value="pod2" style="rounded=1;whiteSpace=wrap;html=1;" vertex="1" parent="1">
          <mxGeometry x="329" y="425" width="90" height="40" as="geometry" />
        </mxCell>
        <mxCell id="0rpYeIa2x_W2y_OSrQGR-55" value="pod3" style="rounded=1;whiteSpace=wrap;html=1;" vertex="1" parent="1">
          <mxGeometry x="479" y="425" width="90" height="40" as="geometry" />
        </mxCell>
        <mxCell id="0rpYeIa2x_W2y_OSrQGR-58" value="node1(k8s:1.16.8)" style="rounded=1;whiteSpace=wrap;html=1;" vertex="1" parent="1">
          <mxGeometry x="150" y="631" width="120" height="30" as="geometry" />
        </mxCell>
        <mxCell id="0rpYeIa2x_W2y_OSrQGR-59" value="" style="rounded=0;whiteSpace=wrap;html=1;" vertex="1" parent="1">
          <mxGeometry x="150" y="661" width="120" height="66" as="geometry" />
        </mxCell>
        <mxCell id="0rpYeIa2x_W2y_OSrQGR-60" value="node2(k8s:1.16.8)" style="rounded=1;whiteSpace=wrap;html=1;" vertex="1" parent="1">
          <mxGeometry x="300" y="631" width="120" height="30" as="geometry" />
        </mxCell>
        <mxCell id="0rpYeIa2x_W2y_OSrQGR-61" value="" style="rounded=0;whiteSpace=wrap;html=1;" vertex="1" parent="1">
          <mxGeometry x="300" y="661" width="120" height="61" as="geometry" />
        </mxCell>
        <mxCell id="0rpYeIa2x_W2y_OSrQGR-62" value="node3(k8s:1.16.8)" style="rounded=1;whiteSpace=wrap;html=1;" vertex="1" parent="1">
          <mxGeometry x="450" y="631" width="120" height="30" as="geometry" />
        </mxCell>
        <mxCell id="0rpYeIa2x_W2y_OSrQGR-63" value="" style="rounded=0;whiteSpace=wrap;html=1;" vertex="1" parent="1">
          <mxGeometry x="450" y="661" width="120" height="59" as="geometry" />
        </mxCell>
        <mxCell id="0rpYeIa2x_W2y_OSrQGR-64" value="pod1" style="rounded=1;whiteSpace=wrap;html=1;" vertex="1" parent="1">
          <mxGeometry x="163" y="670" width="90" height="40" as="geometry" />
        </mxCell>
        <mxCell id="0rpYeIa2x_W2y_OSrQGR-65" value="pod2" style="rounded=1;whiteSpace=wrap;html=1;" vertex="1" parent="1">
          <mxGeometry x="315" y="673" width="90" height="40" as="geometry" />
        </mxCell>
        <mxCell id="0rpYeIa2x_W2y_OSrQGR-66" value="pod3" style="rounded=1;whiteSpace=wrap;html=1;" vertex="1" parent="1">
          <mxGeometry x="465" y="673" width="90" height="40" as="geometry" />
        </mxCell>
        <mxCell id="0rpYeIa2x_W2y_OSrQGR-67" value="升级完成" style="text;html=1;strokeColor=none;fillColor=none;align=center;verticalAlign=middle;whiteSpace=wrap;rounded=0;" vertex="1" parent="1">
          <mxGeometry x="338" y="604" width="65" height="20" as="geometry" />
        </mxCell>
      </root>
    </mxGraphModel>
  </diagram>
</mxfile>
